<?xml version="1.0" encoding="utf-8"?>
<!-- Generator: Adobe Illustrator 24.0.0, SVG Export Plug-In . SVG Version: 6.00 Build 0)  -->
<svg version="1.1" id="Layer_1" xmlns="http://www.w3.org/2000/svg" xmlns:xlink="http://www.w3.org/1999/xlink" x="0px" y="0px"
	 viewBox="0 0 2000 2000" style="enable-background:new 0 0 2000 2000;" xml:space="preserve">
<style type="text/css">
	.st0{fill:#ED1D51;}
</style>
<g>
	<path d="M1037.2,1992c-100.8,0.1-201.7,2.4-302.4-0.6c-109.1-3.2-181.6-76.2-182.2-177.1c-0.6-98.8,73.9-176.2,181.7-178.4
		c170-3.5,340.2-0.5,510.3-1.7c232.5-1.6,393.6-153.6,391.9-368.4c-1.7-210.6-161.4-357.6-391.2-358.8
		c-163.8-0.8-327.6,0.8-491.4-0.6c-121.2-1-201.5-73.3-201.9-178c-0.4-105.6,78.1-176.1,201-176.9c182.7-1.1,365.4-2.5,548.1,0.5
		c383,6.1,693.4,324.7,698.7,714.2c5.2,382.5-308,713.1-688.7,725.2C1220,1994.4,1128.6,1992,1037.2,1992z"/>
	<path class="st0" d="M957.3,7.2c100.8,0,201.6-2.1,302.3,0.6c107.6,2.9,182.5,77.3,182.9,176c0.4,99.8-72.3,176.9-180,179.3
		c-173.1,3.8-346.4,0.4-519.6,1.8c-222.2,1.8-383,151.3-385.1,356.1c-2.1,208.9,160.5,368.8,381.6,371.7
		c166.9,2.2,333.8-0.4,500.8,1c123.5,1,201.4,70.2,202.3,176c0.9,105.9-77.6,179.6-198.8,180.8c-182.7,1.8-365.4,3.6-548-0.4
		C305.7,1441.6-3,1118,0,725C3.1,328.6,310,14.7,702.2,7.4C787.2,5.9,872.3,7.2,957.3,7.2z"/>
</g>
</svg>
