<svg width="10" height="10" viewBox="0 0 10 10" fill="none" xmlns="http://www.w3.org/2000/svg">
<path fill-rule="evenodd" clip-rule="evenodd" d="M4.94911 0L6.18132 0.803456L7.65231 0.793732L8.25454 2.13583L9.49727 2.92292L9.2783 4.37756L9.89821 5.71157L8.92757 6.81691L8.72785 8.2743L7.31371 8.6794L6.35777 9.79747L4.94911 9.37371L3.54044 9.79747L2.5845 8.6794L1.17036 8.2743L0.970641 6.81691L0 5.71157L0.619915 4.37756L0.400947 2.92292L1.64368 2.13583L2.2459 0.793732L3.71689 0.803456L4.94911 0ZM6.25792 3.51882L4.28923 5.60903L3.64028 4.92003C3.48881 4.75921 3.23566 4.75163 3.07485 4.9031C2.91403 5.05456 2.90645 5.30772 3.05792 5.46853L3.99804 6.46669C4.15596 6.63436 4.42249 6.63436 4.58041 6.46669L6.84028 4.06732C6.99174 3.9065 6.98416 3.65335 6.82335 3.50189C6.66253 3.35042 6.40938 3.358 6.25792 3.51882Z" fill="white"/>
</svg>
